<?xml version="1.0" standalone="no"?>
<!DOCTYPE svg PUBLIC "-//W3C//DTD SVG 20010904//EN"
 "http://www.w3.org/TR/2001/REC-SVG-20010904/DTD/svg10.dtd">
<svg version="1.0" xmlns="http://www.w3.org/2000/svg"
 width="512.000000pt" height="512.000000pt" viewBox="0 0 512.000000 512.000000"
 preserveAspectRatio="xMidYMid meet">
<metadata>
Created by potrace 1.14, written by Peter Selinger 2001-2017
</metadata>
<g transform="translate(0.000000,512.000000) scale(0.100000,-0.100000)"
fill="#000000" stroke="none">
<path d="M2523 3131 l-28 -59 -35 18 c-19 9 -47 20 -63 24 -23 5 -29 3 -37
-19 -6 -15 -10 -49 -10 -76 l0 -49 -70 6 -70 7 0 -28 c0 -69 82 -170 175 -215
49 -24 145 -39 145 -22 0 21 -223 202 -235 190 -2 -2 31 -29 74 -61 42 -31 92
-73 111 -93 l35 -36 -40 7 c-96 16 -195 88 -235 169 -34 71 -30 80 36 72 106
-12 190 -61 200 -116 8 -43 30 -88 57 -117 24 -27 31 -28 51 -7 15 14 16 14
16 -2 0 -14 7 -16 46 -10 101 13 204 87 250 178 36 72 33 88 -19 88 -23 0 -56
-4 -72 -9 l-30 -8 -1 56 c0 31 -6 66 -12 78 -12 21 -14 21 -58 8 -25 -7 -51
-19 -59 -25 -11 -9 -20 0 -45 49 -16 34 -35 61 -40 61 -5 0 -22 -27 -37 -59z
m71 -13 c50 -115 60 -253 22 -327 -10 -18 -15 -35 -12 -38 7 -8 34 49 41 90 9
48 52 82 136 108 54 17 129 26 129 15 0 -16 -33 -91 -52 -117 -46 -62 -168
-129 -237 -129 -23 0 21 43 122 118 48 36 85 67 83 70 -5 5 -52 -29 -149 -108
-38 -30 -71 -55 -75 -55 -4 0 -13 -4 -19 -8 -10 -6 -13 28 -15 160 l-2 168 -3
-167 c-2 -93 -6 -168 -10 -168 -9 0 -32 32 -48 68 -22 51 -28 121 -15 190 12
69 57 182 72 182 5 0 19 -24 32 -52z m-143 -38 c38 -20 39 -22 33 -58 -4 -20
-10 -44 -14 -52 -5 -8 -6 -28 -3 -44 l6 -29 -31 22 c-17 12 -44 26 -60 32 -22
7 -28 15 -26 32 2 12 6 43 9 70 7 55 21 59 86 27z m304 -1 c9 -29 8 -110 -2
-119 -26 -22 -103 -59 -103 -49 0 6 14 36 31 66 17 30 29 56 27 58 -3 3 -15
-14 -28 -37 -13 -23 -25 -38 -26 -33 -2 6 -8 30 -13 53 l-9 44 41 19 c54 24
74 24 82 -2z"/>
<path d="M2410 3036 c0 -11 43 -76 47 -72 3 3 -5 21 -17 40 -20 33 -30 43 -30
32z"/>
<path d="M1642 2587 c-12 -13 -22 -35 -22 -50 0 -20 -5 -27 -20 -27 -11 0 -20
-5 -20 -11 0 -6 9 -13 20 -16 19 -5 20 -14 20 -119 0 -95 3 -114 15 -114 12 0
15 19 15 115 l0 115 30 0 c20 0 30 5 30 15 0 10 -10 15 -30 15 -21 0 -30 5
-30 16 0 27 20 54 40 54 11 0 20 7 20 15 0 23 -44 18 -68 -8z"/>
<path d="M1800 2590 c-11 -11 -20 -33 -20 -50 0 -23 -4 -30 -20 -30 -11 0 -20
-7 -20 -15 0 -8 9 -15 20 -15 19 0 20 -7 20 -115 0 -96 3 -115 15 -115 12 0
15 19 15 115 l0 115 30 0 c20 0 30 5 30 15 0 10 -10 15 -30 15 -25 0 -30 4
-30 23 0 28 17 47 42 47 10 0 18 7 18 15 0 22 -46 19 -70 -5z"/>
<path d="M1923 2594 c-8 -21 13 -42 28 -27 13 13 5 43 -11 43 -6 0 -13 -7 -17
-16z"/>
<path d="M3184 2595 c-4 -9 -2 -21 4 -27 15 -15 44 -1 40 19 -4 23 -36 29 -44
8z"/>
<path d="M3030 2545 c0 -28 -4 -35 -20 -35 -11 0 -20 -7 -20 -15 0 -8 9 -15
20 -15 19 0 20 -7 20 -98 0 -83 3 -102 18 -115 24 -22 82 -23 82 -2 0 9 -9 15
-23 15 -39 0 -47 18 -47 112 l0 88 35 0 c24 0 35 5 35 15 0 10 -11 15 -35 15
-33 0 -35 2 -35 35 0 24 -5 35 -15 35 -10 0 -15 -11 -15 -35z"/>
<path d="M2106 2501 c-28 -15 -36 -16 -36 -5 0 8 -9 14 -20 14 -19 0 -20 -7
-20 -130 0 -123 1 -130 20 -130 19 0 20 7 20 95 0 105 14 135 65 135 15 0 25
6 25 14 0 24 -15 26 -54 7z"/>
<path d="M2278 2501 c-30 -15 -38 -16 -38 -5 0 8 -7 14 -15 14 -13 0 -15 -21
-15 -130 0 -109 2 -130 15 -130 12 0 15 16 15 85 0 46 5 95 11 109 27 59 117
55 138 -6 6 -17 11 -66 11 -109 0 -64 3 -79 15 -79 12 0 15 17 15 91 0 87 1
92 29 120 32 32 47 35 85 18 34 -16 46 -56 46 -150 0 -66 3 -79 16 -79 14 0
15 14 12 104 -3 93 -6 107 -26 129 -13 14 -37 27 -53 31 -35 7 -96 -16 -105
-39 -6 -14 -10 -13 -33 8 -37 36 -78 41 -123 18z"/>
<path d="M3678 2501 c-30 -15 -38 -16 -38 -5 0 8 -9 14 -20 14 -19 0 -20 -7
-20 -130 0 -123 1 -130 20 -130 19 0 20 7 20 93 0 65 4 99 15 114 31 44 111
37 134 -13 6 -14 11 -63 11 -109 0 -69 3 -85 15 -85 12 0 15 18 15 100 0 95
-1 101 -27 129 -37 39 -78 47 -125 22z"/>
<path d="M1321 2484 c-90 -76 -43 -234 70 -234 43 0 94 21 102 42 3 7 6 1 6
-14 1 -18 6 -28 16 -28 13 0 15 21 15 130 0 109 -2 130 -15 130 -9 0 -15 -9
-15 -25 l0 -24 -25 24 c-35 36 -111 35 -154 -1z m152 -35 c58 -62 18 -169 -63
-169 -21 0 -46 3 -55 6 -38 15 -59 110 -34 155 14 27 67 49 99 42 14 -3 37
-18 53 -34z"/>
<path d="M1920 2380 c0 -123 1 -130 20 -130 19 0 20 7 20 130 0 123 -1 130
-20 130 -19 0 -20 -7 -20 -130z"/>
<path d="M2732 2494 c-50 -34 -68 -125 -37 -184 32 -63 129 -80 184 -34 l31
26 0 -26 c0 -16 6 -26 15 -26 13 0 15 21 15 130 0 109 -2 130 -15 130 -9 0
-15 -10 -15 -26 l0 -26 -31 26 c-36 31 -110 36 -147 10z m135 -30 c50 -31 50
-134 0 -169 -33 -23 -91 -19 -124 9 -24 21 -28 32 -28 74 0 93 74 135 152 86z"/>
<path d="M3190 2380 c0 -109 2 -130 15 -130 13 0 15 21 15 130 0 109 -2 130
-15 130 -13 0 -15 -21 -15 -130z"/>
<path d="M3331 2484 c-93 -78 -43 -234 75 -234 85 0 134 47 134 130 0 84 -45
130 -126 130 -42 0 -59 -5 -83 -26z m152 -35 c37 -40 37 -95 1 -138 -22 -26
-33 -31 -70 -31 -63 0 -94 32 -94 95 0 58 13 83 53 100 42 18 76 10 110 -26z"/>
<path d="M1500 2081 c-5 -11 -10 -27 -10 -36 0 -13 2 -14 14 -3 8 7 10 15 5
18 -10 7 1 25 21 33 12 4 12 6 -2 6 -10 1 -22 -8 -28 -18z"/>
<path d="M1550 2081 c-5 -11 -10 -27 -10 -36 0 -13 2 -14 14 -3 8 7 10 15 5
18 -14 10 8 33 26 27 9 -4 14 -3 10 3 -10 16 -34 11 -45 -9z"/>
<path d="M2596 2078 c-7 -13 -16 -45 -19 -73 l-5 -50 11 48 c6 26 14 47 19 47
5 0 6 5 2 12 -4 6 1 17 11 25 11 7 14 13 7 13 -6 0 -18 -10 -26 -22z"/>
<path d="M3341 2033 c-13 -66 -13 -87 -1 -55 12 28 27 28 35 1 4 -11 9 -18 12
-16 2 3 -1 15 -7 27 -9 18 -8 26 7 43 14 17 11 16 -11 -3 l-28 -25 7 43 c10
62 0 51 -14 -15z"/>
<path d="M3046 2045 c-4 -22 -10 -49 -12 -60 -4 -17 0 -21 25 -23 30 -2 52 19
50 50 0 7 -5 1 -11 -14 -13 -36 -48 -39 -48 -4 0 37 41 72 53 46 3 -6 4 -5 3
2 -2 7 -13 12 -24 11 -13 -2 -22 4 -24 15 -2 9 -8 -1 -12 -23z"/>
<path d="M1945 2060 c-8 -13 9 -20 24 -11 10 6 9 10 -3 14 -8 3 -18 2 -21 -3z"/>
<path d="M2756 2063 c-3 -3 -6 -16 -5 -27 0 -15 2 -17 6 -6 3 8 10 18 16 21 6
4 6 9 -1 12 -5 4 -12 4 -16 0z"/>
<path d="M1398 2049 c-10 -5 -18 -15 -18 -20 0 -6 7 -3 16 5 8 9 20 16 25 16
16 0 22 -30 11 -56 -14 -29 -49 -32 -55 -4 -4 17 -4 16 -3 -2 1 -19 7 -23 33
-24 28 -1 32 3 38 33 4 21 2 40 -6 49 -13 16 -18 17 -41 3z"/>
<path d="M1739 2049 c6 -7 8 -26 5 -43 l-4 -31 10 30 c7 23 6 33 -5 42 -8 7
-11 8 -6 2z"/>
<path d="M1775 2051 c-4 -7 0 -8 11 -4 15 6 16 1 11 -43 -5 -38 -4 -43 4 -24
5 13 9 35 7 49 -3 26 -22 39 -33 22z"/>
<path d="M1857 2042 c-10 -10 -17 -22 -17 -26 0 -5 9 2 19 15 25 30 47 14 37
-26 -9 -34 -35 -44 -52 -20 -8 10 -14 15 -14 9 0 -21 18 -34 43 -32 19 2 28 9
32 28 3 14 8 33 12 44 3 11 1 16 -5 12 -6 -3 -13 -2 -17 4 -9 15 -20 12 -38
-8z"/>
<path d="M2083 2049 c34 -20 15 -79 -25 -79 -22 0 -25 48 -5 70 10 12 9 12 -6
0 -24 -18 -20 -73 6 -78 24 -5 57 26 57 53 0 23 -17 45 -34 45 -6 0 -3 -5 7
-11z"/>
<path d="M2165 2050 c-4 -6 -10 -8 -15 -5 -9 6 -24 -64 -16 -73 3 -3 6 4 6 15
0 28 34 68 49 59 7 -5 10 -22 7 -44 l-5 -37 11 39 c8 31 8 40 -3 47 -18 11
-26 11 -34 -1z"/>
<path d="M2329 2051 c9 -6 12 -21 7 -52 l-5 -44 10 38 c12 41 7 67 -13 67 -10
0 -10 -2 1 -9z"/>
<path d="M2423 2049 c34 -20 15 -79 -25 -79 -22 0 -25 48 -5 70 10 12 9 12 -6
0 -24 -18 -20 -73 6 -78 24 -5 57 26 57 53 0 23 -17 45 -34 45 -6 0 -3 -5 7
-11z"/>
<path d="M2505 2050 c-4 -6 -10 -8 -15 -5 -9 6 -24 -64 -16 -73 3 -3 6 4 6 15
0 28 34 68 49 59 7 -5 10 -22 7 -44 l-5 -37 11 39 c8 31 8 40 -3 47 -18 11
-26 11 -34 -1z"/>
<path d="M2857 2047 c-24 -17 -27 -66 -4 -81 21 -14 51 2 54 30 2 15 1 14 -7
-3 -9 -23 -44 -31 -55 -13 -10 17 6 57 28 68 12 6 17 11 11 11 -5 1 -18 -5
-27 -12z"/>
<path d="M2989 2052 c10 -7 12 -22 8 -53 -5 -36 -4 -39 4 -19 13 32 8 72 -11
77 -12 4 -13 3 -1 -5z"/>
<path d="M3183 2050 c30 -19 19 -80 -14 -80 -26 0 -34 25 -20 58 11 25 10 26
-4 8 -28 -37 -13 -80 26 -74 45 6 52 84 8 95 -8 3 -7 0 4 -7z"/>
<path d="M3283 2050 c30 -19 19 -80 -14 -80 -26 0 -34 25 -20 58 11 25 10 26
-4 8 -28 -37 -13 -80 26 -74 45 6 52 84 8 95 -8 3 -7 0 4 -7z"/>
<path d="M3718 2053 c27 -5 28 -15 1 -39 -11 -10 -25 -27 -30 -36 -8 -16 -5
-18 23 -17 24 1 27 3 11 6 -29 6 -29 14 2 43 33 31 32 50 -2 49 -24 -2 -25 -2
-5 -6z"/>
<path d="M1622 2008 c-15 -57 -8 -59 10 -3 9 25 12 45 8 45 -4 0 -12 -19 -18
-42z"/>
<path d="M1690 2027 c0 -11 1 -18 3 -16 1 2 8 11 15 20 9 13 9 16 -3 16 -8 0
-15 -9 -15 -20z"/>
<path d="M2001 2034 c0 -11 3 -14 6 -6 3 7 2 16 -1 19 -3 4 -6 -2 -5 -13z"/>
<path d="M2276 2007 c-4 -22 -4 -42 -1 -45 3 -3 5 3 5 14 0 10 6 31 14 45 10
20 10 26 1 26 -7 0 -16 -18 -19 -40z"/>
<path d="M2632 2030 c0 -14 2 -19 5 -12 2 6 2 18 0 25 -3 6 -5 1 -5 -13z"/>
<path d="M2671 2036 c-19 -23 -10 -71 14 -72 15 -1 16 0 3 3 -21 5 -25 52 -6
71 7 7 9 12 6 12 -3 0 -11 -6 -17 -14z"/>
<path d="M2940 2009 c-15 -56 -8 -58 12 -3 8 24 12 44 7 44 -4 0 -13 -18 -19
-41z"/>
<path d="M3421 2035 c-1 -11 9 -26 22 -34 21 -13 21 -13 6 5 -9 10 -19 26 -22
34 -4 11 -6 9 -6 -5z"/>
<path d="M3571 2033 c-9 -16 -12 -16 -21 -3 -9 12 -10 11 -5 -6 3 -13 -1 -26
-10 -34 -8 -7 -15 -17 -15 -23 0 -6 7 -1 16 12 l17 24 13 -24 c7 -13 13 -19
13 -14 1 6 -3 16 -8 24 -6 9 -4 23 6 38 8 13 13 23 10 23 -3 0 -11 -8 -16 -17z"/>
<path d="M3655 2012 c-18 -37 -18 -37 -26 -12 -6 21 -7 19 -8 -15 -1 -23 -7
-47 -13 -54 -9 -10 -9 -12 -1 -7 14 8 77 115 71 121 -2 3 -13 -12 -23 -33z"/>
<path d="M1576 1999 c-8 -42 0 -50 9 -9 4 17 5 34 2 36 -2 3 -7 -10 -11 -27z"/>
<path d="M1942 2010 c0 -14 2 -19 5 -12 2 6 2 18 0 25 -3 6 -5 1 -5 -13z"/>
<path d="M2796 1999 c-8 -42 0 -50 9 -9 4 17 5 34 2 36 -2 3 -7 -10 -11 -27z"/>
<path d="M1482 2000 c0 -14 2 -19 5 -12 2 6 2 18 0 25 -3 6 -5 1 -5 -13z"/>
<path d="M1532 2000 c0 -14 2 -19 5 -12 2 6 2 18 0 25 -3 6 -5 1 -5 -13z"/>
<path d="M1992 1990 c0 -14 2 -19 5 -12 2 6 2 18 0 25 -3 6 -5 1 -5 -13z"/>
<path d="M2741 1988 c-1 -21 4 -28 17 -28 11 0 13 3 6 8 -7 4 -14 16 -17 27
-4 15 -5 14 -6 -7z"/>
<path d="M1682 1980 c0 -14 2 -19 5 -12 2 6 2 18 0 25 -3 6 -5 1 -5 -13z"/>
<path d="M2622 1980 c0 -14 2 -19 5 -12 2 6 2 18 0 25 -3 6 -5 1 -5 -13z"/>
<path d="M1938 1968 c5 -5 16 -8 23 -6 8 3 3 7 -10 11 -17 4 -21 3 -13 -5z"/>
<path d="M3430 1970 c-23 -7 -23 -8 -3 -9 12 -1 25 4 28 9 3 6 5 10 3 9 -2 -1
-14 -5 -28 -9z"/>
<path d="M1471 1954 c0 -11 3 -14 6 -6 3 7 2 16 -1 19 -3 4 -6 -2 -5 -13z"/>
<path d="M1521 1954 c0 -11 3 -14 6 -6 3 7 2 16 -1 19 -3 4 -6 -2 -5 -13z"/>
<path d="M2552 1934 c-7 -8 -8 -14 -3 -14 10 0 25 19 20 25 -2 1 -10 -3 -17
-11z"/>
</g>
</svg>
